<svg width="710" height="322" viewBox="0 0 710 322" fill="none" xmlns="http://www.w3.org/2000/svg">
<path d="M0 86H712V322H0V86Z" fill="#BDC4B0"/>
<mask id="mask0_10_16" style="mask-type:luminance" maskUnits="userSpaceOnUse" x="0" y="0" width="102" height="226">
<path d="M101.399 225.578L-5.33648e-06 225.578L-2.50571e-05 2.14186e-06L101.399 -6.72275e-06L101.399 225.578Z" fill="white"/>
</mask>
<g mask="url(#mask0_10_16)">
<path d="M0.917506 0.0624919C1.23886 0.0624919 1.50433 0.348951 1.51364 0.713534C2.76647 46.5365 3.91217 73.4062 12.6307 88.8594C22.1456 83.9635 33.6678 73.0625 47.691 59.3646C47.9286 59.1354 48.2872 59.151 48.5107 59.3958C48.7343 59.6458 48.7436 60.0469 48.5387 60.3177C36.3272 76.0417 26.6073 88.9635 22.2434 99.6406C36.0198 109.417 59.9771 110.698 100.836 112.104C101.157 112.115 101.418 112.417 101.418 112.776C101.418 113.141 101.157 113.437 100.836 113.448C59.9771 114.854 36.0198 116.135 22.2434 125.917C26.6073 136.594 36.3272 149.51 48.5387 165.24C48.7436 165.505 48.7343 165.906 48.5107 166.156C48.2872 166.406 47.9286 166.422 47.691 166.187C33.6678 152.495 22.1503 141.594 12.6307 136.698C3.91218 152.151 2.76648 179.016 1.51366 224.844C1.50435 225.208 1.23888 225.495 0.917525 225.495C0.591513 225.495 0.326044 225.208 0.31673 224.844C-0.936094 179.016 -2.07714 152.151 -10.7957 136.698C-20.3152 141.594 -31.8375 152.49 -45.8607 166.188C-46.0982 166.422 -46.4568 166.406 -46.6804 166.156C-46.9039 165.906 -46.9132 165.505 -46.7083 165.24C-34.4968 149.51 -24.777 136.594 -20.413 125.917C-34.1894 116.135 -58.1467 114.854 -99.0054 113.448C-99.3268 113.438 -99.5876 113.141 -99.5876 112.776C-99.5876 112.417 -99.3268 112.12 -99.0054 112.104C-58.1467 110.698 -34.1894 109.417 -20.413 99.6406C-24.777 88.9635 -34.4968 76.0417 -46.7083 60.3177C-46.9132 60.0469 -46.9039 59.6458 -46.6804 59.3958C-46.4568 59.151 -46.0982 59.1354 -45.8607 59.3646C-31.8375 73.0625 -20.3152 83.9635 -10.7957 88.8594C-2.08181 73.4062 -0.936106 46.5365 0.316711 0.713534C0.326025 0.348951 0.591493 0.0624919 0.917506 0.0624919ZM12.4025 90.3802C12.2069 90.3802 12.0159 90.2708 11.9041 90.0781C4.14038 76.776 2.12376 55.2448 0.91285 20.5885C-0.293395 55.2448 -2.31001 76.776 -10.0738 90.0781C-10.2321 90.3542 -10.5488 90.4583 -10.8143 90.3229C-19.1136 86.1979 -28.8381 77.5677 -40.3697 66.4792C-30.4775 79.4115 -22.7836 90.3177 -19.1043 99.6198C-18.9879 99.9219 -19.081 100.276 -19.3232 100.453C-31.1854 109.161 -50.3829 111.422 -81.2843 112.776C-50.3829 114.135 -31.1854 116.396 -19.3232 125.099C-19.081 125.281 -18.9879 125.635 -19.1043 125.937C-22.7836 135.24 -30.4775 146.146 -40.3697 159.078C-28.8381 147.99 -19.1136 139.354 -10.8143 135.234C-10.5488 135.099 -10.2321 135.203 -10.0738 135.479C-2.31001 148.781 -0.293385 170.312 0.912866 204.969C2.12377 170.312 4.14039 148.781 11.9042 135.479C12.0625 135.203 12.3792 135.099 12.6447 135.234C20.944 139.354 30.6685 147.99 42.2001 159.078C32.3079 146.146 24.614 135.24 20.9347 125.937C20.8183 125.635 20.9114 125.281 21.1583 125.099C33.0158 116.396 52.2133 114.135 83.1147 112.776C52.2133 111.422 33.0158 109.161 21.1583 100.453C20.9114 100.276 20.8183 99.9219 20.9347 99.6198C24.614 90.3125 32.3079 79.4062 42.2001 66.4792C30.6685 77.5677 20.944 86.1979 12.6447 90.3229C12.5701 90.3646 12.4863 90.3802 12.4025 90.3802Z" fill="#FFF9EF"/>
</g>
</svg>
