<svg width="453" height="426" viewBox="0 0 453 426" fill="none" xmlns="http://www.w3.org/2000/svg">
<rect x="0.447632" y="0.227661" width="455" height="425" fill="#BDC4B0"/>
<mask id="mask0_5_2995" style="mask-type:luminance" maskUnits="userSpaceOnUse" x="353" y="161" width="102" height="226">
<path d="M353.448 161.228H454.847V386.806H353.448V161.228Z" fill="white"/>
</mask>
<g mask="url(#mask0_5_2995)">
<path d="M453.929 386.743C453.608 386.743 453.343 386.457 453.333 386.092C452.08 340.269 450.935 313.4 442.216 297.946C432.701 302.842 421.179 313.743 407.156 327.441C406.918 327.67 406.56 327.655 406.336 327.41C406.113 327.16 406.103 326.759 406.308 326.488C418.52 310.764 428.24 297.842 432.604 287.165C418.827 277.389 394.87 276.108 354.011 274.702C353.69 274.691 353.429 274.389 353.429 274.03C353.429 273.665 353.69 273.368 354.011 273.358C394.87 271.952 418.827 270.67 432.604 260.889C428.24 250.212 418.52 237.295 406.308 221.566C406.103 221.301 406.113 220.9 406.336 220.65C406.56 220.4 406.918 220.384 407.156 220.618C421.179 234.311 432.697 245.212 442.216 250.108C450.935 234.655 452.08 207.79 453.333 161.962C453.343 161.597 453.608 161.311 453.929 161.311C454.255 161.311 454.521 161.597 454.53 161.962C455.783 207.79 456.924 234.655 465.643 250.108C475.162 245.212 486.684 234.316 500.708 220.618C500.945 220.384 501.304 220.4 501.527 220.65C501.751 220.9 501.76 221.301 501.555 221.566C489.344 237.295 479.624 250.212 475.26 260.889C489.036 270.67 512.994 271.952 553.852 273.358C554.174 273.368 554.434 273.665 554.434 274.03C554.434 274.389 554.174 274.686 553.852 274.702C512.994 276.108 489.036 277.389 475.26 287.165C479.624 297.842 489.344 310.764 501.555 326.488C501.76 326.759 501.751 327.16 501.527 327.41C501.304 327.655 500.945 327.67 500.708 327.441C486.684 313.743 475.162 302.842 465.643 297.946C456.929 313.4 455.783 340.269 454.53 386.092C454.521 386.457 454.255 386.743 453.929 386.743ZM442.444 296.426C442.64 296.426 442.831 296.535 442.943 296.728C450.707 310.03 452.723 331.561 453.934 366.217C455.14 331.561 457.157 310.03 464.921 296.728C465.079 296.452 465.396 296.347 465.661 296.483C473.961 300.608 483.685 309.238 495.217 320.327C485.324 307.394 477.631 296.488 473.951 287.186C473.835 286.884 473.928 286.53 474.17 286.353C486.032 277.644 505.23 275.384 536.131 274.03C505.23 272.67 486.032 270.41 474.17 261.707C473.928 261.525 473.835 261.17 473.951 260.868C477.631 251.566 485.324 240.66 495.217 227.728C483.685 238.816 473.961 247.452 465.661 251.571C465.396 251.707 465.079 251.603 464.921 251.327C457.157 238.025 455.14 216.493 453.934 181.837C452.723 216.493 450.707 238.025 442.943 251.327C442.784 251.603 442.468 251.707 442.202 251.571C433.903 247.452 424.178 238.816 412.647 227.728C422.539 240.66 430.233 251.566 433.912 260.868C434.029 261.17 433.935 261.525 433.689 261.707C421.831 270.41 402.634 272.67 371.732 274.03C402.634 275.384 421.831 277.644 433.689 286.353C433.935 286.53 434.029 286.884 433.912 287.186C430.233 296.493 422.539 307.4 412.647 320.327C424.178 309.238 433.903 300.608 442.202 296.483C442.277 296.441 442.361 296.426 442.444 296.426Z" fill="#FFF9EF"/>
</g>
</svg>
