<svg width="30" height="34" viewBox="0 0 30 34" fill="none" xmlns="http://www.w3.org/2000/svg">
<path fill-rule="evenodd" clip-rule="evenodd" d="M14.9081 33.349C23.1423 33.349 29.8162 25.8802 29.8162 16.6719C29.8162 7.46354 23.1423 0 14.9081 0C6.67395 0 0 7.46354 0 16.6719C0 25.8802 6.67395 33.349 14.9081 33.349ZM8.13635 9.58333L14.9081 15.6406L21.6799 9.58333L21.8755 9.40104H7.94074L8.13635 9.58333ZM22.5973 10.8281L22.8582 10.5833V23.1406C22.8582 23.5885 22.5368 23.9479 22.1363 23.9479H7.67993C7.2794 23.9479 6.95804 23.5885 6.95804 23.1406V10.5833L7.21885 10.8281L7.22817 10.8385L14.4563 17.3073C14.7218 17.5417 15.0944 17.5417 15.3599 17.3073L22.588 10.8385L22.5973 10.8281Z" fill="white"/>
</svg>
